<svg width="270" height="194" viewBox="0 0 270 194" fill="none" xmlns="http://www.w3.org/2000/svg">
<path d="M-230.643 156.065C-279.769 152.274 -296.774 66.9645 -310 66.9645V230H442V112.463C426.884 32.0824 399.173 18.3066 387.206 21.4662C328.255 26.016 339.97 156.065 287.065 156.065C246.253 156.065 222.824 53.6941 190.704 53.6941C152.915 53.6941 115.126 193.981 66 193.981C-15.2462 193.98 -45.4774 -12.6575 -111.608 0.612859C-151.286 0.612859 -173.96 156.065 -230.643 156.065Z" fill="white" fill-opacity="0.3"/>
<path d="M362.643 156.065C411.769 152.274 428.774 66.9645 442 66.9645V230H-310V112.463C-294.884 32.0824 -267.173 18.3066 -255.206 21.4662C-196.255 26.016 -207.97 156.065 -155.065 156.065C-114.253 156.065 -90.8241 53.6941 -58.7035 53.6941C-20.9146 53.6941 16.8744 193.981 66 193.981C147.246 193.98 177.477 -12.6575 243.608 0.612859C283.286 0.612859 305.96 156.065 362.643 156.065Z" fill="white" fill-opacity="0.2"/>
</svg>
