<svg width="270" height="194" viewBox="0 0 270 194" fill="none" xmlns="http://www.w3.org/2000/svg">
<path d="M-20.6432 156.065C-69.7688 152.274 -86.7739 66.9645 -100 66.9645V230H652V112.463C636.884 32.0824 609.173 18.3066 597.206 21.4662C538.255 26.016 549.97 156.065 497.065 156.065C456.253 156.065 432.824 53.6941 400.704 53.6941C362.915 53.6941 325.126 193.981 276 193.981C194.754 193.98 164.523 -12.6575 98.392 0.612859C58.7136 0.612859 36.0402 156.065 -20.6432 156.065Z" fill="white" fill-opacity="0.3"/>
<path d="M572.643 156.065C621.769 152.274 638.774 66.9645 652 66.9645V230H-100V112.463C-84.8844 32.0824 -57.1725 18.3066 -45.206 21.4662C13.7448 26.016 2.03015 156.065 54.9347 156.065C95.7468 156.065 119.176 53.6941 151.296 53.6941C189.085 53.6941 226.874 193.981 276 193.981C357.246 193.98 387.477 -12.6575 453.608 0.612859C493.286 0.612859 515.96 156.065 572.643 156.065Z" fill="white" fill-opacity="0.2"/>
</svg>
